HIERARCHY
ROOT Hips
{
	OFFSET 0.000000 89.005402 0.000000
	CHANNELS 6 Xposition Yposition Zposition Xrotation Yrotation Zrotation
	JOINT Spine
	{
		OFFSET 0.116900 10.681000 0.373400
		CHANNELS 3 Xrotation Yrotation Zrotation
		JOINT Spine1
		{
			OFFSET 0.000000 13.840401 0.053500
			CHANNELS 3 Xrotation Yrotation Zrotation
			JOINT Spine2
			{
				OFFSET 0.000000 14.712700 -0.366200
				CHANNELS 3 Xrotation Yrotation Zrotation
				JOINT Neck
				{
					OFFSET 0.000000 35.415497 -3.314200
					CHANNELS 3 Xrotation Yrotation Zrotation
					JOINT Head
					{
						OFFSET 0.000000 16.899200 1.218300
						CHANNELS 3 Xrotation Yrotation Zrotation
						JOINT HeadTop_End
						{
							OFFSET 0.000000 22.206207 2.192500
							CHANNELS 3 Xrotation Yrotation Zrotation
							End Site
							{
								OFFSET 0.000000 22.314178 0.000000
							}
						}
					}
				}
				JOINT LeftShoulder
				{
					OFFSET 12.896400 26.716293 -4.548400
					CHANNELS 3 Xrotation Yrotation Zrotation
					JOINT LeftArm
					{
						OFFSET 19.027000 -4.857010 -1.718400
						CHANNELS 3 Xrotation Yrotation Zrotation
						JOINT LeftForeArm
						{
							OFFSET 24.179897 0.000000 0.000000
							CHANNELS 3 Xrotation Yrotation Zrotation
							JOINT LeftHand
							{
								OFFSET 27.156403 0.000000 0.000000
								CHANNELS 3 Xrotation Yrotation Zrotation
								JOINT LeftHandIndex1
								{
									OFFSET 16.441200 0.000000 0.000000
									CHANNELS 3 Xrotation Yrotation Zrotation
									JOINT LeftHandIndex2
									{
										OFFSET 4.821899 0.000000 0.000000
										CHANNELS 3 Xrotation Yrotation Zrotation
										JOINT LeftHandIndex3
										{
											OFFSET 6.386497 0.000000 0.000000
											CHANNELS 3 Xrotation Yrotation Zrotation
											JOINT LeftHandIndex4
											{
												OFFSET 5.188988 0.000000 0.000000
												CHANNELS 3 Xrotation Yrotation Zrotation
												End Site
												{
													OFFSET -0.178703 5.185913 0.000177
												}
											}
										}
									}
								}
								JOINT LeftHandThumb1
								{
									OFFSET 6.534897 -5.032593 5.900300
									CHANNELS 3 Xrotation Yrotation Zrotation
									JOINT LeftHandThumb2
									{
										OFFSET 3.818176 -2.204422 2.204423
										CHANNELS 3 Xrotation Yrotation Zrotation
										JOINT LeftHandThumb3
										{
											OFFSET 3.252098 -1.877594 1.877601
											CHANNELS 3 Xrotation Yrotation Zrotation
											JOINT LeftHandThumb4
											{
												OFFSET 5.251778 -3.032120 3.032117
												CHANNELS 3 Xrotation Yrotation Zrotation
												End Site
												{
													OFFSET 0.000023 6.780014 0.000000
												}
											}
										}
									}
								}
							}
						}
					}
				}
				JOINT RightShoulder
				{
					OFFSET -12.896300 26.716293 -4.548400
					CHANNELS 3 Xrotation Yrotation Zrotation
					JOINT RightArm
					{
						OFFSET -19.027000 -4.857010 -1.718400
						CHANNELS 3 Xrotation Yrotation Zrotation
						JOINT RightForeArm
						{
							OFFSET -24.179897 0.000000 0.000000
							CHANNELS 3 Xrotation Yrotation Zrotation
							JOINT RightHand
							{
								OFFSET -27.156403 0.000000 0.000000
								CHANNELS 3 Xrotation Yrotation Zrotation
								JOINT RightHandThumb1
								{
									OFFSET -6.591202 -4.852203 5.988100
									CHANNELS 3 Xrotation Yrotation Zrotation
									JOINT RightHandThumb2
									{
										OFFSET -3.818176 -2.204422 2.204423
										CHANNELS 3 Xrotation Yrotation Zrotation
										JOINT RightHandThumb3
										{
											OFFSET -3.252098 -1.877594 1.877601
											CHANNELS 3 Xrotation Yrotation Zrotation
											JOINT RightHandThumb4
											{
												OFFSET -5.251778 -3.032120 3.032117
												CHANNELS 3 Xrotation Yrotation Zrotation
												End Site
												{
													OFFSET -0.000023 6.780014 0.000000
												}
											}
										}
									}
								}
								JOINT RightHandIndex1
								{
									OFFSET -16.029404 0.000000 0.000000
									CHANNELS 3 Xrotation Yrotation Zrotation
									JOINT RightHandIndex2
									{
										OFFSET -5.213303 0.000000 0.000000
										CHANNELS 3 Xrotation Yrotation Zrotation
										JOINT RightHandIndex3
										{
											OFFSET -6.386528 0.000000 0.000000
											CHANNELS 3 Xrotation Yrotation Zrotation
											JOINT RightHandIndex4
											{
												OFFSET -5.189026 0.000000 0.000000
												CHANNELS 3 Xrotation Yrotation Zrotation
												End Site
												{
													OFFSET 0.236702 5.183624 0.001972
												}
											}
										}
									}
								}
							}
						}
					}
				}
			}
		}
	}
	JOINT LeftUpLeg
	{
		OFFSET 14.073000 -7.904099 -1.463000
		CHANNELS 3 Xrotation Yrotation Zrotation
		JOINT LeftLeg
		{
			OFFSET -0.109806 -34.073280 4.093200
			CHANNELS 3 Xrotation Yrotation Zrotation
			JOINT LeftFoot
			{
				OFFSET 0.109806 -29.899420 -6.319000
				CHANNELS 3 Xrotation Yrotation Zrotation
				JOINT LeftToeBase
				{
					OFFSET 1.551100 -14.988700 20.535801
					CHANNELS 3 Xrotation Yrotation Zrotation
					JOINT LeftToe_End
					{
						OFFSET 0.221200 0.570800 13.248301
						CHANNELS 3 Xrotation Yrotation Zrotation
						End Site
						{
							OFFSET 0.000000 13.262435 0.000000
						}
					}
				}
			}
		}
	}
	JOINT RightUpLeg
	{
		OFFSET -13.839300 -7.904099 -1.463000
		CHANNELS 3 Xrotation Yrotation Zrotation
		JOINT RightLeg
		{
			OFFSET 0.109694 -34.073219 4.093300
			CHANNELS 3 Xrotation Yrotation Zrotation
			JOINT RightFoot
			{
				OFFSET -0.109694 -29.899384 -6.319200
				CHANNELS 3 Xrotation Yrotation Zrotation
				JOINT RightToeBase
				{
					OFFSET -1.551100 -14.988700 20.535801
					CHANNELS 3 Xrotation Yrotation Zrotation
					JOINT RightToe_End
					{
						OFFSET -0.221200 0.570900 13.248299
						CHANNELS 3 Xrotation Yrotation Zrotation
						End Site
						{
							OFFSET 0.000000 13.262440 0.000000
						}
					}
				}
			}
		}
	}
}
MOTION
Frames: 6
Frame Time: 0.033333
-0.384551 71.819817 -0.075031 -5.398678 -46.211991 -0.238055 9.452219 7.171219 -1.616266 2.187714 0.989895 -0.915630 2.202829 0.982776 -0.894152 0.084651 13.220563 4.538680 8.920925 20.138143 -4.130235 0.000001 0.000000 0.000000 1.117175 3.546356 -8.633310 -53.487010 4.935517 -51.503000 -0.000109 -106.358073 -0.000107 1.988617 -7.706160 -15.869255 0.255301 3.378222 -45.814341 5.654095 5.847760 -88.067448 2.162136 4.544816 -50.866365 -0.000002 0.000001 -0.000003 -6.141225 -11.690807 -6.761692 9.914129 42.595519 3.409837 -0.422806 8.108095 27.509109 -0.000003 -0.000003 0.000001 3.036126 13.027196 -5.371408 -48.713722 27.172839 83.457071 0.000121 105.988287 -0.000118 -8.345367 17.548103 8.775679 -7.341107 13.749657 7.412337 9.855755 -44.489093 -3.903275 -0.115767 -14.513107 -28.973878 -0.000000 -0.000000 -0.000000 -0.124380 -2.384787 45.108864 4.500582 -4.654544 88.071164 1.723229 -3.618381 50.920112 -0.000000 -0.000000 -0.000000 -31.861449 6.395794 19.963986 59.337651 -8.188276 3.970971 -25.244840 -6.905752 -16.448583 -1.594041 -0.000024 0.000000 0.000000 0.000000 -0.000000 -18.986223 -11.114494 -32.040851 59.475074 -5.224215 -6.737414 -30.568911 -9.909654 26.194257 -0.013001 -0.000019 -0.000001 -0.000000 -0.000000 -0.000000 
-0.412246 72.199051 -0.113044 -5.973072 -46.937962 -0.476372 9.201131 6.632156 -1.631752 3.173305 1.057989 -1.274283 3.183760 1.034640 -1.252807 0.435909 12.324244 4.135628 7.813129 22.190462 -4.655645 0.000000 0.000000 0.000001 0.821046 2.766548 -7.370514 -50.727938 6.141088 -51.420458 0.000107 -108.181440 0.000096 1.297208 -7.036694 -14.243196 0.255302 3.378221 -45.814341 5.654097 5.847759 -88.067448 2.162136 4.544819 -50.866365 -0.000003 0.000001 -0.000002 -6.141225 -11.690806 -6.761686 9.914123 42.595522 3.409838 -0.422807 8.108096 27.509115 -0.000002 0.000001 -0.000001 3.883323 14.188640 -4.505800 -49.242785 28.163462 80.704142 0.000171 106.439161 -0.000173 -9.943561 17.445565 8.943051 -7.341105 13.749658 7.412337 9.855747 -44.489089 -3.903273 -0.115771 -14.513102 -28.973878 -0.000001 -0.000001 0.000002 -0.124381 -2.384787 45.108864 4.500582 -4.654545 88.071171 1.723225 -3.618382 50.920112 0.000001 0.000000 -0.000001 -30.517565 6.909934 19.813636 58.145373 -7.610926 3.943690 -24.995897 -6.859639 -16.790613 -1.594830 -0.000010 0.000004 -0.000000 0.000000 -0.000000 -18.927074 -11.134798 -32.170474 58.803407 -4.594902 -6.794064 -30.174082 -9.602699 25.609716 -0.013616 0.000003 0.000002 -0.000000 -0.000000 0.000000 
-0.457248 72.642296 -0.151977 -6.622917 -47.692438 -0.762303 8.920943 6.012160 -1.652140 4.272596 1.116925 -1.672718 4.279792 1.093554 -1.653152 0.816734 11.326710 3.691526 6.574981 24.490342 -5.173656 -0.000001 0.000000 0.000001 0.541024 1.927143 -6.007880 -47.624635 7.318832 -51.546891 0.000054 -110.195164 0.000064 0.498393 -6.362883 -12.456849 0.255302 3.378220 -45.814344 5.654098 5.847759 -88.067448 2.162136 4.544819 -50.866362 -0.000002 0.000001 0.000001 -6.141228 -11.690805 -6.761693 9.914132 42.595522 3.409842 -0.422810 8.108094 27.509109 0.000001 0.000002 -0.000001 4.797483 15.534061 -3.566630 -49.652979 29.374799 77.444899 0.000149 106.960359 -0.000167 -11.723179 17.316729 9.010255 -7.341105 13.749660 7.412336 9.855748 -44.489089 -3.903274 -0.115767 -14.513105 -28.973874 0.000002 0.000001 -0.000001 -0.124380 -2.384787 45.108861 4.500582 -4.654545 88.071164 1.723226 -3.618379 50.920116 0.000001 -0.000002 -0.000000 -29.005365 7.489650 19.605880 56.735468 -6.990793 3.945620 -24.657818 -6.820958 -17.166407 -1.593596 0.000007 -0.000002 -0.000000 0.000002 -0.000000 -18.799291 -11.225049 -32.305777 57.981749 -3.887605 -6.835041 -29.722258 -9.259898 24.948989 -0.021533 0.000009 -0.000013 -0.000000 -0.000000 -0.000000 
-0.536686 73.109100 -0.193045 -7.367606 -48.396928 -1.102514 8.611961 5.340713 -1.673430 5.438081 1.169676 -2.097879 5.443087 1.149417 -2.080239 1.241976 10.248633 3.202738 5.217214 26.836448 -5.584332 -0.000001 0.000000 0.000001 0.274423 0.956656 -4.544476 -44.223036 8.530343 -51.842888 -0.000017 -112.280927 -0.000011 -0.383869 -5.735698 -10.596835 0.255304 3.378216 -45.814337 5.654097 5.847759 -88.067455 2.162136 4.544819 -50.866369 -0.000000 0.000000 0.000000 -6.141225 -11.690810 -6.761687 9.914131 42.595519 3.409839 -0.422812 8.108094 27.509111 -0.000000 0.000002 -0.000000 5.734259 16.984997 -2.578717 -49.848674 30.663735 73.838102 -0.000042 107.549900 0.000050 -13.628496 17.193000 9.097967 -7.341108 13.749657 7.412341 9.855749 -44.489093 -3.903280 -0.115766 -14.513104 -28.973874 -0.000001 -0.000001 0.000001 -0.124382 -2.384786 45.108861 4.500579 -4.654543 88.071164 1.723227 -3.618382 50.920119 0.000000 -0.000001 -0.000001 -27.387189 8.122227 19.344267 55.199974 -6.411613 3.996575 -24.256141 -6.796445 -17.548511 -1.591522 0.000010 -0.000001 -0.000000 -0.000000 -0.000000 -18.587212 -11.439756 -32.519572 57.109274 -3.082518 -6.808927 -29.300429 -8.899691 24.211962 -0.029340 0.000002 -0.000001 0.000000 0.000000 -0.000000 
-0.609355 73.580788 -0.234776 -8.181077 -48.930454 -1.487488 8.317488 4.634040 -1.605471 6.645815 1.220729 -2.486902 6.646608 1.215010 -2.470796 1.735173 9.024615 2.664857 3.535711 28.630686 -5.436031 -0.000001 0.000000 0.000001 0.016247 -0.117328 -2.982477 -40.688202 9.505508 -52.766975 0.000037 -114.266210 0.000036 -1.319235 -5.225263 -8.808942 0.255305 3.378220 -45.814344 5.654101 5.847758 -88.067448 2.162134 4.544819 -50.866369 -0.000001 -0.000002 -0.000002 -6.141221 -11.690808 -6.761690 9.914125 42.595522 3.409835 -0.422806 8.108095 27.509109 0.000000 -0.000000 0.000001 6.662634 18.540728 -1.546302 -49.642515 31.887520 69.919028 -0.000043 108.215659 0.000042 -15.601492 17.087911 9.329148 -7.341106 13.749659 7.412338 9.855746 -44.489096 -3.903276 -0.115769 -14.513105 -28.973874 -0.000001 0.000001 -0.000000 -0.124382 -2.384790 45.108857 4.500579 -4.654545 88.071164 1.723227 -3.618383 50.920112 0.000000 0.000002 0.000000 -25.823427 8.833373 19.002568 53.632698 -5.990519 4.162901 -23.763225 -6.813122 -17.858720 -1.589604 -0.000022 -0.000006 0.000000 0.000002 0.000000 -18.401513 -11.977751 -32.999314 56.221408 -2.023160 -6.607717 -28.924775 -8.458244 23.305715 -0.037900 0.000004 0.000007 0.000000 -0.000000 0.000000 
-0.769771 74.069160 -0.223497 -9.223624 -49.132529 -2.075182 8.006770 3.961044 -1.485067 7.785193 1.291932 -2.875254 7.779486 1.326432 -2.860356 2.579647 7.669409 2.172653 1.049019 29.241368 -3.058096 0.000000 -0.000000 0.000000 -0.271263 -1.166562 -1.106120 -36.801435 9.361361 -55.292027 0.000040 -115.848628 0.000035 -2.271436 -4.872585 -7.211266 0.255305 3.378220 -45.814348 5.654098 5.847758 -88.067448 2.162135 4.544817 -50.866365 0.000003 0.000002 -0.000001 -6.141223 -11.690809 -6.761685 9.914132 42.595522 3.409839 -0.422801 8.108095 27.509106 -0.000001 0.000001 0.000000 7.543997 20.151691 -0.382788 -48.613175 32.679265 65.676340 0.000003 108.910146 -0.000006 -17.581906 16.995853 9.827113 -7.341106 13.749659 7.412342 9.855753 -44.489096 -3.903270 -0.115767 -14.513105 -28.973874 0.000003 0.000002 -0.000002 -0.124381 -2.384784 45.108864 4.500584 -4.654545 88.071171 1.723225 -3.618382 50.920109 -0.000001 -0.000000 0.000005 -24.144229 9.611920 18.550304 52.025039 -5.840120 4.623418 -23.262856 -6.813106 -18.157189 -1.588104 -0.000003 0.000001 -0.000000 0.000002 0.000000 -17.912373 -13.095739 -33.678399 55.164784 -0.698825 -6.288848 -28.655502 -8.052586 22.277239 -0.047394 -0.000015 0.000002 -0.000000 -0.000000 0.000000 
